<svg xmlns="http://www.w3.org/2000/svg" width="900" height="900" viewBox="0 0 900 900">
  <rect width="100%" height="100%" fill="#fff"/>
  <rect x="36" y="36" width="828" height="828" fill="none" stroke="#111" stroke-width="4"/>
  <polyline points="773.9,186.0 768.8,190.3 772.9,197.1 772.9,186.1 761.3,181.6 746.7,180.2 732.0,179.2 717.3,178.5 702.5,177.8 687.8,178.1 673.2,180.2 659.5,185.3 645.3,188.6 637.0,195.9 651.1,194.2 665.6,191.7 680.3,190.7 695.0,191.4 709.7,192.4 724.3,194.2 738.9,196.3 753.5,198.7 764.2,191.8 757.4,179.6 747.6,168.6 737.7,157.5 727.9,146.5 718.0,135.4 718.5,124.7 716.8,118.8 703.1,120.4 691.8,129.8 679.9,138.5 667.5,146.5 654.8,154.0 659.6,159.2 671.3,161.2 683.6,153.1 695.4,144.1 706.9,135.0 707.2,133.9 695.0,142.3 682.8,150.7 670.6,159.0 658.7,165.1 645.1,162.8 631.4,167.1 638.7,168.3 652.9,165.8 653.5,178.0 639.3,180.3 639.3,184.0 653.5,181.0 661.0,169.2 649.1,170.2 643.3,176.4 646.8,172.9 632.9,178.0 623.0,170.2 609.2,172.7 595.0,175.9 581.4,180.7 587.0,191.8 579.1,204.2 579.0,213.1 593.5,210.9 607.8,207.6 622.2,204.3 632.4,195.1 629.8,180.8 616.1,182.1 601.6,185.3 587.2,188.4 574.2,190.2 562.2,198.7 552.4,208.0 542.9,218.8 533.4,230.1 526.4,242.9 528.5,254.2 541.8,249.9 551.1,238.4 559.8,226.5 567.3,213.8 574.0,200.7 580.4,189.7 565.6,191.1 551.2,193.5 536.9,197.2 526.4,203.8 540.2,201.6 554.0,196.8 553.5,197.5 542.2,206.3 528.2,210.7 535.2,214.7 543.5,205.9 528.9,208.4 520.4,201.7 511.1,192.5 496.8,194.1 498.7,208.1 499.4,222.9 499.1,237.6 498.4,252.3 498.0,267.1 498.4,281.8 499.4,296.5 504.8,292.2 509.4,278.2 514.5,264.4 518.9,250.3 521.8,235.9 522.4,221.3 518.8,209.7 504.0,210.7 491.0,208.5 476.4,208.8 470.7,212.7 485.1,214.6 493.3,216.9 479.6,219.6 465.2,216.3 450.8,214.4 436.4,217.3 422.2,220.6 419.4,228.2 433.5,232.5 448.1,232.4 462.4,229.0 476.5,224.7 489.2,223.2 477.6,230.2 468.0,237.2 455.2,244.3 444.7,253.7 436.9,266.2 429.3,278.7 430.9,283.5 444.2,277.2 456.7,269.4 468.5,260.6 477.1,248.6 483.0,235.1 493.0,225.4 492.9,224.4 489.5,237.2 493.7,238.1 479.8,236.6 465.0,236.9 450.5,238.1 440.4,245.9 427.1,252.4 413.4,257.9 400.7,265.4 390.6,275.8 383.2,288.5 378.8,301.5 391.4,294.0 404.2,286.6 416.1,277.9 425.7,266.7 433.4,254.1 444.5,244.5 456.4,237.2 442.0,240.9 427.5,242.7 413.0,240.0 400.4,235.0 387.8,239.6 375.5,245.7 363.8,251.4 351.3,256.8 364.9,258.4 379.7,258.1 394.3,256.5 408.7,253.2 422.7,248.4 434.6,242.0 422.7,235.4 422.0,237.8 427.7,241.1 415.3,249.3 403.0,257.5 389.7,262.7 374.9,262.8 360.2,263.7 346.4,268.3 333.6,275.4 320.7,282.4 316.4,287.0 331.1,288.0 345.8,288.0 360.0,284.1 372.4,276.2 384.5,267.6 396.3,262.0 386.4,273.0 374.7,281.5 365.0,292.3 356.1,304.1 349.6,317.3 342.4,329.9 355.3,322.8 366.9,313.7 373.4,303.5 377.4,289.4 383.9,276.2 372.4,283.3 360.0,291.5 347.4,298.8 335.2,307.1 323.4,315.9 314.1,326.8 307.1,338.8 299.4,350.3 295.0,362.9 307.1,354.5 319.4,346.3 330.4,336.6 338.8,324.4 344.8,311.0 350.8,297.5 337.5,294.0 322.7,293.7 308.3,294.4 297.0,302.3 284.8,310.6 279.3,318.5 294.0,317.9 308.3,314.7 322.0,309.3 334.2,301.0 341.7,295.8 329.6,304.2 317.4,312.7 305.3,321.2 293.4,329.6 282.2,339.1 271.1,348.8 261.0,359.7 251.8,371.2 242.4,382.5 232.8,393.8 222.1,403.6 209.9,411.3 195.7,415.1 184.4,424.1 175.5,435.6 168.8,448.7 177.3,448.5 190.6,442.1 202.4,433.2 211.8,421.9 219.9,409.6 230.2,404.3 238.4,392.1 247.4,380.4 256.4,368.8 265.9,357.4 276.2,346.9 287.1,337.0 298.3,327.3 297.1,323.0 282.5,323.3 269.1,322.2 258.2,331.1 247.1,340.2 235.6,349.4 223.6,357.9 211.7,366.5 199.5,374.8 187.1,382.9 174.2,389.6 162.5,397.5 148.7,402.5 152.0,404.0 166.4,400.9 180.2,396.1 193.6,389.9 206.8,383.4 219.4,375.8 231.6,367.5 243.6,358.9 255.5,350.2 267.2,341.2 278.4,331.8 290.9,324.8 295.3,336.8 298.8,351.2 301.6,365.4 291.9,376.3 283.3,388.3 275.4,400.7 267.6,413.2 260.3,425.8 253.3,438.8 246.6,451.9 240.1,465.1 234.6,478.8 229.5,492.6 224.7,506.5 219.9,520.4 223.7,517.4 230.3,505.8 234.8,491.8 239.5,477.8 244.9,464.0 250.8,450.5 257.3,437.3 264.4,424.3 272.0,411.7 279.8,399.1 287.9,386.8 296.2,374.6 304.8,366.9 316.5,376.0 328.1,385.1 332.8,395.5 330.7,407.4 325.2,421.2 320.2,435.0 314.3,448.5 310.1,462.6 307.9,475.6 302.1,489.0 296.4,502.6 294.5,517.1 293.2,530.7 295.9,545.0 302.4,545.1 308.3,531.6 312.8,517.6 315.8,503.2 315.4,488.5 312.0,474.2 313.9,459.7 318.3,445.7 323.4,431.9 328.7,418.1 334.8,404.6 341.2,391.3 348.4,378.4 356.4,366.0 365.0,354.1 365.0,352.3 355.0,363.1 346.1,374.9 338.4,387.4 330.0,399.5 319.8,409.8 308.8,419.6 299.5,430.9 293.2,444.0 287.7,457.5 287.3,468.4 298.2,458.5 307.6,447.2 314.5,434.1 319.8,420.4 325.5,406.7 314.9,414.1 303.1,423.0 291.3,431.9 285.9,433.1 290.7,431.9 279.4,422.4 268.0,412.9 267.2,401.8 262.3,408.0 250.4,411.1 235.8,413.2 222.3,416.9 214.2,429.2 205.0,440.7 195.2,451.8 186.7,463.9 179.2,476.3 167.7,485.0 158.0,496.0 150.8,508.8 144.7,522.0 139.7,535.8 151.2,527.7 161.3,516.9 169.5,504.7 177.6,492.7 183.5,479.2 191.3,468.9 197.2,455.5 206.2,444.4 202.9,456.4 196.1,469.4 193.7,483.8 194.0,498.4 196.5,512.9 199.1,527.3 202.9,525.9 208.4,512.2 214.0,498.7 216.6,484.2 215.2,469.5 211.0,455.4 212.5,441.1 218.1,427.4 224.8,414.3 227.2,399.7 230.2,385.3 240.2,375.3 249.4,363.7 238.7,370.3 228.1,378.2 229.2,387.0 223.6,400.7 217.7,414.3 211.8,427.8 205.9,441.4 200.0,455.0 194.1,468.6 188.3,482.2 184.6,496.4 182.3,510.7 176.1,524.1 172.0,538.3 171.7,553.0 174.1,567.5 177.0,582.0 184.1,572.6 189.9,559.1 193.3,544.9 194.0,530.2 190.5,516.0 185.6,502.2 186.9,487.5 180.7,499.3 174.6,512.8 167.9,526.0 163.1,539.4 164.7,553.4 166.6,542.5 169.2,528.0 171.4,519.8 165.3,533.3 158.0,545.6 147.9,556.0 138.1,567.0 131.4,579.5 127.0,593.2 123.6,606.8 136.2,600.0 146.2,589.2 153.7,576.6 160.1,563.5 160.2,548.7 163.8,553.5 165.0,567.2 158.1,580.3 151.5,593.5 148.7,607.8 149.3,622.5 154.4,629.0 163.5,617.4 170.6,604.5 174.0,590.2 170.3,576.1 168.8,563.8 182.2,570.1 187.0,579.6 179.0,591.4 175.8,605.8 173.7,616.3 184.8,606.5 194.1,595.1 201.1,582.2 206.2,568.3 208.8,553.8 213.1,539.9 214.5,531.4 209.5,544.9 199.7,555.9 192.3,568.5 198.3,577.5 205.0,586.5 201.0,600.5 201.5,614.5 203.7,600.1 208.7,600.6 212.4,614.9 218.9,628.1 226.4,640.7 230.0,628.0 231.0,613.3 228.2,601.8 216.3,600.2 212.3,586.0 207.3,580.7 216.9,584.0 220.8,598.2 228.3,588.4 233.0,574.4 234.9,559.9 234.4,545.2 230.5,531.0 223.9,527.1 218.4,540.8 214.0,554.8 213.5,569.5 212.6,583.3 204.9,596.0 197.2,608.6 188.5,620.3 181.7,633.3 178.2,647.5 176.5,661.9 178.0,676.6 184.0,675.3 191.4,662.5 197.5,649.1 199.2,634.6 197.2,620.0 198.4,615.9 204.1,629.5 204.1,644.3 207.7,658.5 215.7,670.9 225.5,681.9 236.3,688.6 233.9,674.1 230.3,659.8 223.1,647.0 212.7,636.6 203.6,633.3 201.7,648.0 198.0,662.1 197.1,676.7 198.7,691.3 201.8,705.7 208.9,718.5 218.3,729.8 228.3,740.7 229.8,728.9 226.7,714.5 221.9,700.6 215.1,688.4 205.5,678.1 197.9,665.8 206.0,667.9 201.9,657.8 209.9,670.3 217.8,682.7 225.8,695.2 233.7,707.7 241.3,720.3 250.9,731.4 264.4,737.3 274.2,736.5 267.2,723.5 256.8,713.1 243.7,706.6 232.8,709.1 234.9,723.7 240.6,737.3 247.2,750.4 255.6,762.6 266.7,772.1 280.3,778.0 291.5,778.4 283.8,765.9 275.9,753.5 263.1,746.4 249.0,742.2 239.7,732.0 236.0,719.9 249.3,713.4 262.6,706.9 275.9,700.4 289.2,693.9 302.4,687.4 315.7,680.9 329.0,674.4 337.0,685.4 338.5,672.8 335.5,658.4 331.3,644.3 325.1,630.8 317.8,620.7 318.6,635.3 321.0,649.9 326.0,663.7 331.9,669.6 337.5,655.8 343.0,642.1 347.7,629.3 346.5,614.6 343.5,600.2 337.1,586.9 328.0,575.3 318.9,563.9 314.3,549.9 314.4,556.6 316.1,571.2 318.4,585.7 322.8,599.8 330.5,612.2 338.8,624.4 343.7,635.8 331.5,627.4 319.3,619.0 307.1,610.6 306.9,598.7 310.9,584.5 311.4,569.8 309.2,555.2 303.9,553.7 295.2,563.4 294.5,578.1 296.9,592.6 298.9,607.2 309.2,602.5 320.7,593.1 332.1,583.7 343.5,574.3 355.0,564.9 366.4,555.6 377.8,546.2 389.3,536.8 397.5,525.1 402.6,511.3 405.2,496.8 403.7,482.1 399.6,467.9 397.1,453.5 397.8,438.7 397.1,435.9 395.0,450.5 394.5,465.0 389.3,478.5 384.6,492.1 386.3,506.7 388.9,521.1 389.8,535.8 397.8,524.3 405.9,512.0 414.1,499.6 421.3,487.8 423.8,473.3 424.0,458.6 421.8,444.0 416.6,430.3 408.1,419.9 403.3,433.8 401.3,448.3 403.3,462.8 409.2,476.3 416.2,489.4 418.8,482.3 419.8,467.5 420.7,452.8 421.6,438.0 426.4,425.5 432.4,412.0 436.9,398.0 442.3,384.2 446.1,370.0 446.0,355.4 440.7,346.3 432.3,358.3 426.2,371.6 422.4,385.8 424.2,400.3 424.9,414.9 421.2,426.9 410.5,416.6 408.3,403.2 407.6,401.6 403.0,415.6 401.1,424.0 405.3,412.4 401.4,402.3 406.2,388.3 395.8,389.6 384.5,398.8 376.6,411.0 370.1,424.3 365.0,438.1 373.7,434.7 385.0,425.1 394.4,413.8 402.5,401.4 410.2,388.8 416.8,375.6 423.4,362.4 421.1,362.9 413.6,375.4 411.5,375.1 405.8,361.4 416.6,354.1 429.7,347.4 440.8,337.6 449.1,325.7 455.6,312.4 448.5,310.6 436.0,318.5 425.0,328.3 417.7,341.1 409.7,353.5 410.6,361.6 424.4,366.7 438.3,371.8 452.2,376.9 462.4,384.9 457.9,396.8 454.4,410.0 452.7,422.6 457.4,431.7 464.1,443.8 473.7,453.4 483.9,460.6 497.7,463.4 511.5,461.1 524.2,459.1 534.3,452.2 543.2,444.5 546.4,432.2 549.8,423.2 549.8,411.7 547.5,399.1 538.8,388.4 533.5,375.7 522.6,366.8 520.1,370.8 528.4,382.9 527.4,392.9 519.8,380.3 509.8,370.1 495.8,369.6 486.0,375.3 479.1,388.3 473.9,381.6 481.5,369.0 478.0,364.4 469.6,374.0 464.1,379.1 477.0,371.9 490.0,364.7 501.1,361.3 495.7,358.0 497.8,350.0 500.9,335.6 505.8,323.4 495.5,319.0 486.0,320.9 498.0,326.4 496.7,332.5 485.0,323.4 473.3,314.3 461.6,305.3 468.1,293.0 477.0,281.1 477.9,278.0 468.4,289.4 459.0,300.6 454.4,310.4 443.6,320.5 432.8,330.7 422.0,340.8 411.2,350.9 400.5,361.1 389.7,371.2 378.9,381.3 368.1,391.5 357.3,401.6 346.5,411.7 335.7,421.8 324.9,432.0 314.2,442.1 303.4,452.2 292.6,462.4 281.8,472.5 271.0,482.6 260.2,492.7 249.4,502.9 238.6,513.0 227.9,523.1 217.1,533.3 206.3,543.4 195.5,553.5 184.7,563.6 173.9,573.8 163.1,583.9 152.3,594.0 141.1,603.4 130.3,613.0 127.4,627.3 126.3,642.0 128.4,656.1 136.1,643.7 142.9,630.6 144.3,616.2 144.4,601.5" fill="none" stroke="#000" stroke-width="4" stroke-linecap="round" stroke-linejoin="round"/>
</svg>
